<?xml version="1.0" encoding="UTF-8" standalone="no"?>
<svg width="213px" height="213px" viewBox="0 0 213 213" version="1.1" xmlns="http://www.w3.org/2000/svg" xmlns:xlink="http://www.w3.org/1999/xlink">
    <!-- Generator: Sketch 45.2 (43514) - http://www.bohemiancoding.com/sketch -->
    <title>500px</title>
    <desc>Created with Sketch.</desc>
    <defs></defs>
    <g id="Page-1" stroke="none" stroke-width="1" fill="none" fill-rule="evenodd">
        <g id="500px">
            <g id="Layer_1">
                <path d="M106.507,0.658 C164.961,0.658 212.348,48.044 212.348,106.496 C212.348,164.949 164.961,212.334 106.507,212.334 C48.052,212.334 0.666,164.949 0.666,106.496 C0.666,48.043 48.052,0.658 106.507,0.658 Z" id="Shape" fill="#373737"></path>
                <g id="Group" transform="translate(30.000000, 67.000000)" fill-rule="nonzero">
                    <g opacity="0.3" transform="translate(3.000000, 2.000000)" id="Shape" fill="#000000">
                        <g>
                            <path d="M152,36.505 C150.871,33.391 149.263,30.681 147.187,28.367 C145.114,26.057 142.563,24.243 139.544,22.92 C136.524,21.599 133.127,20.938 129.353,20.938 C126.333,20.938 123.527,21.412 120.931,22.353 C118.336,23.297 115.93,24.547 113.712,26.103 C111.495,27.661 109.416,29.478 107.483,31.552 C105.547,33.628 103.682,35.752 101.892,37.92 C100.004,35.655 98.09,33.511 96.159,31.481 C94.223,29.454 92.148,27.662 89.931,26.104 C87.714,24.548 85.307,23.298 82.712,22.354 C80.117,21.413 77.263,20.939 74.148,20.939 C70.373,20.939 66.976,21.625 63.958,22.99 C60.936,24.359 58.388,26.2 56.313,28.511 C54.29,30.764 52.747,33.425 51.665,36.483 C50.761,34.418 49.61,32.57 48.211,30.942 C46.341,28.77 44.048,27.036 41.332,25.745 C38.613,24.456 35.488,23.809 31.956,23.809 C29.102,23.809 26.553,24.235 24.311,25.083 C22.069,25.933 19.963,27.342 17.993,29.311 L17.789,29.106 L20.643,12.906 L50.098,12.906 L50.098,0.984 L10.248,0.984 L3.217,40.416 L16.262,40.416 C17.69,38.448 19.217,37.002 20.847,36.087 C22.478,35.17 24.584,34.711 27.166,34.711 C29.136,34.711 30.868,35.05 32.364,35.731 C33.857,36.41 35.148,37.36 36.237,38.582 C37.322,39.806 38.138,41.232 38.683,42.86 C39.225,44.492 39.498,46.225 39.498,48.058 C39.498,49.825 39.208,51.541 38.631,53.204 C38.052,54.868 37.237,56.33 36.185,57.586 C35.131,58.842 33.842,59.859 32.312,60.643 C30.784,61.424 29.067,61.813 27.165,61.813 C23.903,61.813 21.219,60.844 19.114,58.909 C17.008,56.973 15.784,54.375 15.445,51.114 L0.976,51.114 C1.042,54.852 1.808,58.131 3.269,60.948 C4.729,63.767 6.683,66.128 9.128,68.03 C11.574,69.932 14.377,71.342 17.538,72.256 C20.696,73.175 24.008,73.632 27.474,73.632 C31.074,73.701 34.471,73.106 37.666,71.849 C40.857,70.593 43.662,68.814 46.073,66.503 C48.484,64.192 50.405,61.459 51.831,58.3 C51.87,58.213 51.903,58.125 51.941,58.038 C53.06,60.93 54.597,63.458 56.599,65.588 C58.768,67.901 61.364,69.74 64.385,71.107 C67.404,72.476 70.846,73.158 74.718,73.158 C77.831,73.158 80.637,72.71 83.14,71.813 C85.638,70.917 87.953,69.741 90.077,68.276 C92.199,66.815 94.203,65.118 96.092,63.182 C97.978,61.25 99.913,59.245 101.896,57.166 C103.686,59.245 105.575,61.25 107.557,63.182 C109.539,65.118 111.636,66.815 113.858,68.276 C116.073,69.741 118.459,70.918 121.006,71.813 C123.552,72.709 126.289,73.158 129.217,73.158 C132.988,73.158 136.407,72.476 139.477,71.107 C142.544,69.741 145.117,67.853 147.19,65.446 C149.265,63.04 150.874,60.235 152.003,57.024 C153.136,53.82 153.703,50.376 153.703,46.697 C153.7,43.014 153.133,39.617 152,36.505 Z M89.577,51.435 C88.163,52.803 86.654,54.031 85.051,55.114 C83.444,56.201 81.746,57.096 79.954,57.802 C78.159,58.513 76.367,58.866 74.576,58.866 C71.082,58.866 68.346,57.782 66.366,55.611 C64.385,53.44 63.393,50.656 63.393,47.259 C63.393,44.147 64.359,41.341 66.295,38.84 C68.227,36.342 70.845,35.09 74.149,35.09 C75.941,35.09 77.736,35.493 79.529,36.293 C81.322,37.096 83.042,38.109 84.696,39.336 C86.346,40.562 87.927,41.906 89.438,43.366 C90.946,44.832 92.269,46.174 93.398,47.401 C92.27,48.723 90.993,50.069 89.577,51.435 Z M137.563,55.469 C135.674,57.732 132.986,58.865 129.497,58.865 C127.516,58.865 125.651,58.533 123.905,57.875 C122.159,57.215 120.484,56.34 118.882,55.257 C117.275,54.172 115.766,52.946 114.35,51.578 C112.935,50.208 111.614,48.815 110.386,47.401 C111.521,46.173 112.793,44.832 114.21,43.366 C115.626,41.906 117.111,40.561 118.67,39.336 C120.227,38.109 121.873,37.096 123.624,36.293 C125.367,35.493 127.184,35.09 129.072,35.09 C132.561,35.09 135.323,36.27 137.35,38.628 C139.379,40.985 140.393,43.817 140.393,47.119 C140.393,50.42 139.452,53.204 137.563,55.469 Z"></path>
                        </g>
                    </g>
                    <path d="M151.674,35.677 C150.545,32.563 148.937,29.852 146.861,27.538 C144.787,25.228 142.237,23.414 139.218,22.091 C136.198,20.77 132.801,20.109 129.027,20.109 C126.007,20.109 123.201,20.583 120.604,21.524 C118.01,22.468 115.603,23.718 113.385,25.274 C111.168,26.832 109.09,28.648 107.157,30.723 C105.221,32.8 103.356,34.922 101.566,37.091 C99.678,34.826 97.764,32.682 95.833,30.651 C93.897,28.625 91.822,26.832 89.605,25.274 C87.388,23.717 84.981,22.468 82.386,21.524 C79.791,20.583 76.937,20.109 73.822,20.109 C70.047,20.109 66.65,20.795 63.632,22.16 C60.61,23.529 58.062,25.37 55.987,27.681 C53.965,29.934 52.421,32.595 51.34,35.653 C50.436,33.587 49.285,31.74 47.886,30.111 C46.016,27.939 43.723,26.205 41.007,24.914 C38.288,23.625 35.162,22.978 31.631,22.978 C28.777,22.978 26.228,23.404 23.986,24.252 C21.744,25.102 19.638,26.511 17.668,28.48 L17.464,28.275 L20.318,12.074 L49.773,12.074 L49.773,0.155 L9.923,0.155 L2.892,39.588 L15.937,39.588 C17.365,37.618 18.892,36.173 20.522,35.257 C22.153,34.341 24.259,33.882 26.841,33.882 C28.811,33.882 30.543,34.222 32.039,34.902 C33.532,35.581 34.823,36.53 35.912,37.754 C36.997,38.978 37.812,40.404 38.358,42.032 C38.9,43.663 39.173,45.397 39.173,47.23 C39.173,48.997 38.882,50.713 38.306,52.376 C37.727,54.041 36.912,55.503 35.86,56.759 C34.806,58.015 33.517,59.032 31.987,59.815 C30.46,60.597 28.742,60.985 26.841,60.985 C23.579,60.985 20.894,60.017 18.79,58.082 C16.684,56.146 15.46,53.547 15.121,50.287 L0.649,50.287 C0.715,54.025 1.481,57.303 2.942,60.121 C4.402,62.94 6.356,65.301 8.801,67.203 C11.247,69.104 14.05,70.514 17.21,71.429 C20.368,72.347 23.681,72.805 27.146,72.805 C30.746,72.873 34.143,72.278 37.337,71.021 C40.529,69.765 43.333,67.986 45.744,65.676 C48.155,63.365 50.076,60.631 51.502,57.473 C51.541,57.386 51.574,57.297 51.612,57.21 C52.732,60.103 54.268,62.631 56.27,64.76 C58.439,67.073 61.035,68.913 64.056,70.279 C67.075,71.649 70.517,72.331 74.389,72.331 C77.503,72.331 80.308,71.883 82.811,70.986 C85.309,70.09 87.624,68.914 89.748,67.449 C91.87,65.988 93.874,64.291 95.763,62.355 C97.649,60.423 99.584,58.417 101.567,56.338 C103.357,58.417 105.246,60.423 107.228,62.355 C109.21,64.291 111.307,65.988 113.529,67.449 C115.743,68.914 118.13,70.091 120.677,70.986 C123.223,71.882 125.96,72.331 128.888,72.331 C132.659,72.331 136.078,71.649 139.148,70.279 C142.215,68.914 144.787,67.025 146.861,64.618 C148.936,62.213 150.545,59.408 151.674,56.196 C152.807,52.993 153.374,49.549 153.374,45.869 C153.374,42.185 152.807,38.789 151.674,35.677 Z M89.251,50.605 C87.837,51.974 86.328,53.202 84.725,54.284 C83.118,55.372 81.42,56.266 79.627,56.972 C77.833,57.682 76.04,58.035 74.25,58.035 C70.756,58.035 68.021,56.952 66.04,54.781 C64.058,52.61 63.067,49.826 63.067,46.429 C63.067,43.317 64.033,40.51 65.969,38.01 C67.902,35.511 70.52,34.26 73.824,34.26 C75.616,34.26 77.41,34.663 79.204,35.464 C80.997,36.266 82.717,37.28 84.371,38.506 C86.021,39.733 87.602,41.076 89.113,42.537 C90.621,44.003 91.944,45.345 93.073,46.572 C91.943,47.895 90.667,49.241 89.251,50.605 Z M137.236,54.64 C135.346,56.904 132.659,58.036 129.17,58.036 C127.189,58.036 125.324,57.705 123.578,57.047 C121.832,56.387 120.157,55.512 118.555,54.428 C116.948,53.344 115.439,52.118 114.023,50.749 C112.608,49.38 111.287,47.987 110.059,46.573 C111.194,45.345 112.466,44.004 113.883,42.538 C115.299,41.077 116.783,39.733 118.343,38.507 C119.9,37.281 121.546,36.267 123.297,35.465 C125.039,34.664 126.857,34.261 128.745,34.261 C132.234,34.261 134.996,35.441 137.023,37.799 C139.052,40.157 140.066,42.989 140.066,46.291 C140.066,49.592 139.126,52.375 137.236,54.64 Z" id="Shape" fill="#F1F2F2"></path>
                </g>
            </g>
        </g>
    </g>
</svg>