<?xml version="1.0" encoding="UTF-8" standalone="no"?>
<svg width="36px" height="46px" viewBox="0 0 36 46" version="1.1" xmlns="http://www.w3.org/2000/svg" xmlns:xlink="http://www.w3.org/1999/xlink">
    <!-- Generator: Sketch 46.2 (44496) - http://www.bohemiancoding.com/sketch -->
    <title>Artboard 2</title>
    <desc>Created with Sketch.</desc>
    <defs></defs>
    <g id="Page-1" stroke="none" stroke-width="1" fill="none" fill-rule="evenodd">
        <g id="Artboard-2" fill-rule="nonzero" fill="#FFFFFF">
            <g id="if_500px-color_1179306">
                <path d="M35.373737,38.23428 L35.373829,38.23428 C35.047331,37.910624 34.770066,37.71954 34.526117,37.649988 C34.278745,37.579332 34.05784,37.631956 33.887187,37.802064 L33.726621,37.961408 C32.044986,39.633232 30.086827,40.945796 27.906467,41.862576 C25.650128,42.81128 23.252565,43.292348 20.78041,43.292348 C18.308164,43.292348 15.910693,42.81128 13.654446,41.862576 C11.474272,40.945888 9.516205,39.633416 7.83457,37.9615 C6.082508,36.219848 4.762261,34.273404 3.91057,32.176172 C3.080071,30.131288 2.808822,28.593232 2.719701,28.087876 C2.711372,28.040496 2.704801,28.003052 2.699619,27.976004 C2.585326,27.380856 2.034313,27.339272 1.242405,27.4597 C0.91313,27.509748 -0.089039,27.662192 0.006374,28.378964 L0.008688,28.39534 C0.274015,30.05456 0.742662,31.681488 1.40186,33.230768 C2.461315,35.72084 3.977572,37.956624 5.908616,39.876112 C7.83966,41.795876 10.088781,43.303204 12.593511,44.356236 C15.186621,45.446988 17.94113,46 20.78041,46 C23.61821,46 26.372811,45.446712 28.967403,44.355408 C31.4713,43.302744 33.720421,41.79514 35.65239,39.874456 C35.656832,39.87004 35.762333,39.765988 35.820081,39.703428 C36.032657,39.473336 36.217655,39.070744 35.373737,38.23428 L35.373737,38.23428 Z M20.75422,4.928532 C18.041171,4.928532 15.155156,5.472988 13.034765,6.3848 C12.808122,6.473028 12.672637,6.653992 12.642837,6.90828 C12.614981,7.148124 12.680133,7.464604 12.842272,7.876396 C12.973778,8.210448 13.323043,9.097788 13.999269,8.841384 C16.169356,8.018444 18.568308,7.565252 20.75422,7.565252 C23.231187,7.565252 25.633377,8.04724 27.894251,8.997784 C29.690642,9.753288 31.385696,10.844592 33.228544,12.432052 C33.362919,12.54788 33.505531,12.606576 33.6524,12.606576 C34.01166,12.606576 34.356297,12.255688 34.651053,11.92688 C35.143115,11.3781 35.481089,10.921964 34.996246,10.46546 C33.23641,8.808172 31.307958,7.570128 28.927331,6.569352 C26.338292,5.480624 23.58841,4.928532 20.75422,4.928532 L20.75422,4.928532 Z M17.055567,27.733032 C17.058806,28.037828 17.339403,28.305088 17.507002,28.4648 L17.55966,28.515308 C17.847105,28.796368 18.120945,28.938876 18.373408,28.938876 C18.582467,28.938876 18.71129,28.84062 18.756914,28.798392 C18.883516,28.68146 20.315835,27.238716 20.452524,27.101084 L22.04985,28.683852 C22.197737,28.849452 22.358488,28.932436 22.545799,28.937588 C22.800853,28.937588 23.078858,28.7868 23.371948,28.489456 C24.061223,27.789796 23.716308,27.412504 23.549542,27.23016 L21.931115,25.620712 L23.61895,23.930948 C23.989038,23.532772 23.662261,23.109664 23.336225,22.785548 C22.862858,22.314876 22.406148,22.193436 22.113336,22.461616 L20.435125,24.132888 L18.737943,22.44524 C18.647989,22.359588 18.534529,22.314324 18.409871,22.314324 C18.183691,22.314324 17.916143,22.466308 17.614446,22.766228 C17.092493,23.285016 16.980606,23.643632 17.252225,23.929752 L18.949871,25.612248 L17.26222,27.292904 C17.123403,27.43072 17.053901,27.578748 17.055567,27.733032 L17.055567,27.733032 Z M6.293326,30.22476 C6.303506,30.252636 6.543197,30.911632 6.682107,31.238232 C7.444585,33.030484 8.536524,34.640392 9.927567,36.023336 C11.317685,37.405084 12.937315,38.4905 14.741665,39.249132 C16.6095,40.034628 18.593202,40.432896 20.637706,40.432896 C22.68184,40.432896 24.665542,40.034536 26.533747,39.248948 C28.337356,38.490592 29.957079,37.405084 31.347752,36.0226 C32.738333,34.640392 33.830179,33.030208 34.593212,31.237036 C35.383362,29.379924 35.783989,27.407812 35.783989,25.375624 C35.783989,23.343344 35.383362,21.371232 34.593212,19.514304 C33.830364,17.721224 32.738426,16.11104 31.347752,14.728556 C29.957542,13.34644 28.337819,12.260932 26.533747,11.502208 C24.665727,10.716712 22.682025,10.318444 20.637706,10.318444 C18.56914,10.318444 16.502241,10.727752 14.660318,11.502208 C13.18802,12.121368 10.695968,13.71536 9.237274,15.210912 L9.228667,15.219652 L9.228667,2.827804 L30.167896,2.82762 C30.929912,2.81934 30.929912,1.761524 30.929912,1.413856 C30.929912,1.066372 30.929912,0.008832 30.165583,0.000184 L7.524729,0 C6.90838,0 6.526817,0.50968 6.526817,0.981916 L6.526817,18.424104 C6.526817,18.986776 7.231917,19.39314 7.887043,19.532428 C9.166477,19.804104 9.462066,19.397556 9.775423,18.967364 L9.816976,18.910324 C10.295341,18.203856 11.79022,16.708212 11.805212,16.693308 C14.138087,14.374172 17.257408,13.097028 20.58838,13.097028 C23.903434,13.097028 27.013871,14.374172 29.346745,16.693308 C31.687485,19.020448 32.976637,22.103828 32.976637,25.375624 C32.976637,28.659288 31.694148,31.742576 29.365254,34.057756 C27.066158,36.343312 23.854292,37.654128 20.553398,37.654128 C18.317603,37.654128 16.159454,37.061924 14.310775,35.94118 L14.318642,25.335604 C14.318642,23.921472 14.936009,22.384244 15.969922,21.223388 C17.152092,19.896288 18.781254,19.16544 20.55747,19.16544 C22.277603,19.16544 23.884092,19.814592 25.081161,20.993388 C26.269624,22.163812 26.924102,23.72312 26.924102,25.38418 C26.924102,28.928296 24.120729,31.704488 20.542015,31.704488 C19.852092,31.704488 18.597922,31.40144 18.546374,31.388928 C17.823783,31.175028 17.516349,32.172308 17.415197,32.501024 C17.02623,33.765196 17.610745,34.015804 17.731886,34.053248 C18.883516,34.408552 19.638683,34.475896 20.629284,34.475896 C25.681408,34.475896 29.791516,30.387876 29.791516,25.363204 C29.791516,20.378828 25.683907,16.323652 20.63493,16.323652 C18.162405,16.323652 15.839619,17.263248 14.09459,18.969296 C12.43276,20.594108 11.479547,22.760524 11.479547,24.912588 L11.478621,24.96604 C11.47057,25.234404 11.465295,31.592248 11.463721,33.678716 L11.454282,33.66832 C10.504678,32.623016 9.566087,31.022952 8.943814,29.388204 C8.699865,28.747516 8.148853,28.860952 7.396925,29.091136 C7.068575,29.191692 6.069274,29.497684 6.290272,30.215836 L6.293326,30.22476 L6.293326,30.22476 Z" id="500px"></path>
            </g>
        </g>
    </g>
</svg>