<?xml version="1.0" encoding="UTF-8" standalone="no"?>
<svg width="32px" height="32px" viewBox="0 0 32 32" version="1.1" xmlns="http://www.w3.org/2000/svg" xmlns:xlink="http://www.w3.org/1999/xlink">
    <!-- Generator: Sketch 46.2 (44496) - http://www.bohemiancoding.com/sketch -->
    <title>if_instagram_circle_color_107172</title>
    <desc>Created with Sketch.</desc>
    <defs></defs>
    <g id="Page-1" stroke="none" stroke-width="1" fill="none" fill-rule="evenodd">
        <g id="if_instagram_circle_color_107172" fill="#FFFFFF">
            <path d="M25.271,8.578 L25.271,8.572 C25.773,8.572 26.276,8.582 26.779,8.57 C27.425,8.554 27.951,8 27.951,7.353 C27.951,6.39 27.951,5.426 27.951,4.463 C27.951,3.772 27.404,3.223 26.715,3.222 C25.754,3.222 24.793,3.221 23.832,3.222 C23.144,3.223 22.596,3.774 22.596,4.465 C22.595,5.42 22.592,6.375 22.599,7.33 C22.6,7.473 22.627,7.621 22.672,7.756 C22.845,8.264 23.311,8.576 23.881,8.579 C24.344,8.579 24.808,8.578 25.271,8.578 Z M16,9.817 C12.616,9.815 9.865,12.538 9.818,15.906 C9.769,19.366 12.538,22.107 15.858,22.178 C19.312,22.252 22.106,19.492 22.179,16.135 C22.254,12.675 19.462,9.815 16,9.817 Z M4.046,13.116 L4.046,13.198 C4.046,17.713 4.045,22.228 4.046,26.743 C4.046,27.392 4.608,27.951 5.258,27.951 C12.418,27.952 19.577,27.952 26.737,27.951 C27.393,27.951 27.952,27.394 27.952,26.739 C27.953,22.23 27.952,17.719 27.952,13.211 L27.952,13.117 L25.04,13.117 C25.451,14.431 25.577,15.768 25.416,17.131 C25.255,18.494 24.815,19.762 24.1,20.934 C23.385,22.106 22.456,23.079 21.321,23.852 C18.377,25.858 14.5,26.034 11.375,24.28 C9.796,23.395 8.556,22.16 7.69,20.567 C6.401,18.194 6.195,15.702 6.951,13.116 C5.983,13.116 5.021,13.116 4.046,13.116 Z M28.205,31.255 C28.364,31.229 28.523,31.206 28.68,31.172 C29.926,30.907 30.944,29.868 31.188,28.615 C31.213,28.478 31.233,28.342 31.255,28.206 L31.255,3.794 C31.234,3.661 31.215,3.526 31.19,3.393 C30.922,2.026 29.794,0.965 28.41,0.775 C28.352,0.768 28.297,0.755 28.24,0.745 L3.761,0.745 C3.614,0.772 3.465,0.792 3.32,0.825 C1.968,1.133 0.968,2.221 0.775,3.591 C0.767,3.648 0.755,3.705 0.746,3.762 L0.746,28.24 C0.774,28.394 0.796,28.551 0.831,28.705 C1.13,30.027 2.258,31.052 3.601,31.225 C3.665,31.233 3.731,31.246 3.796,31.255 L28.205,31.255 L28.205,31.255 Z" id="Shape"></path>
        </g>
    </g>
</svg>