<?xml version="1.0" encoding="UTF-8" standalone="no"?>
<svg width="24px" height="21px" viewBox="0 0 24 21" version="1.1" xmlns="http://www.w3.org/2000/svg" xmlns:xlink="http://www.w3.org/1999/xlink">
    <!-- Generator: Sketch 46.2 (44496) - http://www.bohemiancoding.com/sketch -->
    <title>Artboard 3</title>
    <desc>Created with Sketch.</desc>
    <defs></defs>
    <g id="Page-1" stroke="none" stroke-width="1" fill="none" fill-rule="evenodd">
        <g id="Artboard-3" fill-rule="nonzero" fill="#333333">
            <g id="if_photo-24_103171">
                <path d="M21,3 C19.598,3 18.133,3 18.133,3 L17.2,1 C16.985,0.502 16.125,0 15.374,0 L8.759,0 C8.008,0 7.148,0.502 6.933,1 L6,3 C6,3 4.483,3 3,3 C0.611,3 0,5 0,5 L0,19 C0,19 1.5,21 3,21 C4.5,21 19.406,21 21,21 C22.594,21 24,19 24,19 L24,5 C24,5 23.496,3 21,3 Z M12,18.001 C8.687,18.001 6,15.314 6,12 C6,8.687 8.687,6 12,6 C15.314,6 18,8.687 18,12 C18,15.314 15.314,18.001 12,18.001 Z M12,8 C9.791,8 8,9.791 8,12 C8,14.209 9.791,16 12,16 C14.209,16 16,14.209 16,12 C16,9.791 14.209,8 12,8 Z" id="Shape"></path>
            </g>
        </g>
    </g>
</svg>