<?xml version="1.0" encoding="UTF-8" standalone="no"?>
<svg width="1032px" height="127px" viewBox="0 0 1032 127" version="1.1" xmlns="http://www.w3.org/2000/svg" xmlns:xlink="http://www.w3.org/1999/xlink">
    <!-- Generator: Sketch 42 (36781) - http://www.bohemiancoding.com/sketch -->
    <title>Artboard</title>
    <desc>Created with Sketch.</desc>
    <defs></defs>
    <g id="Page-1" stroke="none" stroke-width="1" fill="none" fill-rule="evenodd">
        <g id="Artboard" fill="#FFFFFF">
            <path d="M7.936,20.4 L26.908,20.4 C38.876,20.4 45.744,26.316 45.744,36.652 C45.744,47.396 38.876,53.652 26.908,53.652 L15.96,53.652 L15.96,68 L7.936,68 L7.936,20.4 Z M15.96,27.608 L15.96,46.444 L26.568,46.444 C33.912,46.444 38.06,43.316 38.06,36.856 C38.06,30.6 33.912,27.608 26.568,27.608 L15.96,27.608 Z M88.2,27.608 L88.2,20.4 L54.2,20.4 L54.2,68 L89.016,68 L89.016,60.792 L62.224,60.792 L62.224,47.668 L85.48,47.668 L85.48,40.46 L62.224,40.46 L62.224,27.608 L88.2,27.608 Z M131.812,27.608 L131.812,20.4 L93.664,20.4 L93.664,27.608 L108.692,27.608 L108.692,68 L116.716,68 L116.716,27.608 L131.812,27.608 Z M173.18,27.608 L173.18,20.4 L139.18,20.4 L139.18,68 L173.996,68 L173.996,60.792 L147.204,60.792 L147.204,47.668 L170.46,47.668 L170.46,40.46 L147.204,40.46 L147.204,27.608 L173.18,27.608 Z M214.48,68 L205.776,53.584 C205.096,53.652 204.348,53.652 203.6,53.652 L192.312,53.652 L192.312,68 L184.288,68 L184.288,20.4 L203.6,20.4 C215.772,20.4 222.776,26.316 222.776,36.652 C222.776,44.268 219.24,49.64 212.916,52.088 L223.592,68 L214.48,68 Z M192.312,46.444 L203.6,46.444 C210.944,46.444 215.16,43.316 215.16,36.856 C215.16,30.6 210.944,27.608 203.6,27.608 L192.312,27.608 L192.312,46.444 Z M260.02,60.724 L260.02,20.4 L251.996,20.4 L251.996,68 L280.624,68 L280.624,60.724 L260.02,60.724 Z M296.832,60.724 L296.832,20.4 L288.808,20.4 L288.808,68 L317.436,68 L317.436,60.724 L296.832,60.724 Z M346.904,20.196 C361.116,20.196 372.132,30.6 372.132,44.2 C372.132,57.8 361.116,68.34 346.904,68.34 C332.692,68.34 321.676,57.8 321.676,44.2 C321.676,30.532 332.692,20.196 346.904,20.196 Z M346.972,27.404 C337.588,27.404 329.836,34.748 329.836,44.2 C329.836,53.652 337.656,61.132 346.972,61.132 C356.288,61.132 363.904,53.652 363.904,44.2 C363.904,34.748 356.288,27.404 346.972,27.404 Z M400.512,52.156 L417.988,20.4 L409.828,20.4 L396.5,43.588 L382.9,20.4 L374.808,20.4 L392.556,52.428 L392.556,68 L400.512,68 L400.512,52.156 Z M424.812,20.4 L444.328,20.4 C458.608,20.4 468.944,30.396 468.944,44.2 C468.944,57.936 458.54,68 444.124,68 L424.812,68 L424.812,20.4 Z M432.836,27.608 L432.836,60.792 L444.532,60.792 C453.78,60.792 460.852,53.924 460.852,44.268 C460.852,34.544 453.576,27.608 444.192,27.608 L432.836,27.608 Z M496.056,20.4 L515.028,20.4 C526.996,20.4 533.864,26.316 533.864,36.652 C533.864,47.396 526.996,53.652 515.028,53.652 L504.08,53.652 L504.08,68 L496.056,68 L496.056,20.4 Z M504.08,27.608 L504.08,46.444 L514.688,46.444 C522.032,46.444 526.18,43.316 526.18,36.856 C526.18,30.6 522.032,27.608 514.688,27.608 L504.08,27.608 Z M583.596,68 L583.596,20.4 L575.572,20.4 L575.572,41.072 L550.344,41.072 L550.344,20.4 L542.32,20.4 L542.32,68 L550.344,68 L550.344,48.28 L575.572,48.28 L575.572,68 L583.596,68 Z M617.892,20.196 C632.104,20.196 643.12,30.6 643.12,44.2 C643.12,57.8 632.104,68.34 617.892,68.34 C603.68,68.34 592.664,57.8 592.664,44.2 C592.664,30.532 603.68,20.196 617.892,20.196 Z M617.96,27.404 C608.576,27.404 600.824,34.748 600.824,44.2 C600.824,53.652 608.644,61.132 617.96,61.132 C627.276,61.132 634.892,53.652 634.892,44.2 C634.892,34.748 627.276,27.404 617.96,27.404 Z M683.74,27.608 L683.74,20.4 L645.592,20.4 L645.592,27.608 L660.62,27.608 L660.62,68 L668.644,68 L668.644,27.608 L683.74,27.608 Z M709.536,20.196 C723.748,20.196 734.764,30.6 734.764,44.2 C734.764,57.8 723.748,68.34 709.536,68.34 C695.324,68.34 684.308,57.8 684.308,44.2 C684.308,30.532 695.324,20.196 709.536,20.196 Z M709.604,27.404 C700.22,27.404 692.468,34.748 692.468,44.2 C692.468,53.652 700.288,61.132 709.604,61.132 C718.92,61.132 726.536,53.652 726.536,44.2 C726.536,34.748 718.92,27.404 709.604,27.404 Z M774.5,44.608 L774.5,57.868 C771.1,59.908 767.088,61.132 763.552,61.132 C753.828,61.132 746.144,53.72 746.144,44.2 C746.144,34.748 753.76,27.336 763.484,27.336 C768.448,27.336 773.548,29.376 777.22,32.776 L781.776,26.86 C777.084,22.78 770.284,20.196 763.484,20.196 C749.068,20.196 737.984,30.6 737.984,44.2 C737.984,57.8 748.932,68.34 763.008,68.34 C769.536,68.34 776.676,65.824 781.504,62.152 L781.504,44.608 L774.5,44.608 Z M823.552,68 L814.848,53.584 C814.168,53.652 813.42,53.652 812.672,53.652 L801.384,53.652 L801.384,68 L793.36,68 L793.36,20.4 L812.672,20.4 C824.844,20.4 831.848,26.316 831.848,36.652 C831.848,44.268 828.312,49.64 821.988,52.088 L832.664,68 L823.552,68 Z M801.384,46.444 L812.672,46.444 C820.016,46.444 824.232,43.316 824.232,36.856 C824.232,30.6 820.016,27.608 812.672,27.608 L801.384,27.608 L801.384,46.444 Z M873.76,57.256 L849.756,57.256 L845.2,68 L836.836,68 L857.848,20.4 L866.076,20.4 L886.884,68 L878.316,68 L873.76,57.256 Z M870.7,50.116 L861.724,28.968 L852.748,50.116 L870.7,50.116 Z M893.708,20.4 L912.68,20.4 C924.648,20.4 931.516,26.316 931.516,36.652 C931.516,47.396 924.648,53.652 912.68,53.652 L901.732,53.652 L901.732,68 L893.708,68 L893.708,20.4 Z M901.732,27.608 L901.732,46.444 L912.34,46.444 C919.684,46.444 923.832,43.316 923.832,36.856 C923.832,30.6 919.684,27.608 912.34,27.608 L901.732,27.608 Z M981.248,68 L981.248,20.4 L973.224,20.4 L973.224,41.072 L947.996,41.072 L947.996,20.4 L939.972,20.4 L939.972,68 L947.996,68 L947.996,48.28 L973.224,48.28 L973.224,68 L981.248,68 Z M1013.776,52.156 L1031.252,20.4 L1023.092,20.4 L1009.764,43.588 L996.164,20.4 L988.072,20.4 L1005.82,52.428 L1005.82,68 L1013.776,68 L1013.776,52.156 Z" id="PETER-LLOYD-PHOTOGRA"></path>
            <path d="M59.466,116.148 L59.466,94.8 L55.218,94.8 L55.218,120 L70.374,120 L70.374,116.148 L59.466,116.148 Z M90.714,114.312 L78.006,114.312 L75.594,120 L71.166,120 L82.29,94.8 L86.646,94.8 L97.662,120 L93.126,120 L90.714,114.312 Z M89.094,110.532 L84.342,99.336 L79.59,110.532 L89.094,110.532 Z M122.862,120 L122.862,94.8 L118.686,94.8 L118.686,112.908 L105.186,94.8 L101.01,94.8 L101.01,120 L105.258,120 L105.258,101.928 L118.686,120 L122.862,120 Z M129.522,94.8 L139.854,94.8 C147.414,94.8 152.886,100.092 152.886,107.4 C152.886,114.672 147.378,120 139.746,120 L129.522,120 L129.522,94.8 Z M133.77,98.616 L133.77,116.184 L139.962,116.184 C144.858,116.184 148.602,112.548 148.602,107.436 C148.602,102.288 144.75,98.616 139.782,98.616 L133.77,98.616 Z M165.702,94.62 C160.23,94.62 156.522,97.32 156.522,101.64 C156.522,110.604 170.13,107.472 170.13,113.088 C170.13,115.032 168.366,116.148 165.414,116.148 C162.714,116.148 159.474,114.852 156.882,112.476 L155.046,116.148 C157.638,118.524 161.382,120.144 165.342,120.144 C170.886,120.144 174.846,117.372 174.846,112.872 C174.882,103.8 161.274,106.752 161.274,101.244 C161.274,99.552 162.894,98.616 165.378,98.616 C167.286,98.616 170.022,99.3 172.758,100.956 L174.522,97.212 C172.182,95.664 168.978,94.62 165.702,94.62 Z M190.974,94.692 C183.522,94.692 177.726,100.2 177.726,107.364 C177.726,114.6 183.45,120.18 190.83,120.18 C194.394,120.18 198.03,118.56 200.586,116.04 L198.066,113.232 C196.158,115.068 193.566,116.22 191.046,116.22 C186.006,116.22 182.046,112.296 182.046,107.328 C182.046,102.36 186.006,98.472 191.046,98.472 C193.602,98.472 196.23,99.696 198.066,101.676 L200.55,98.58 C198.102,96.168 194.538,94.692 190.974,94.692 Z M221.178,114.312 L208.47,114.312 L206.058,120 L201.63,120 L212.754,94.8 L217.11,94.8 L228.126,120 L223.59,120 L221.178,114.312 Z M219.558,110.532 L214.806,99.336 L210.054,110.532 L219.558,110.532 Z M231.474,94.8 L241.518,94.8 C247.854,94.8 251.49,97.932 251.49,103.404 C251.49,109.092 247.854,112.404 241.518,112.404 L235.722,112.404 L235.722,120 L231.474,120 L231.474,94.8 Z M235.722,98.616 L235.722,108.588 L241.338,108.588 C245.226,108.588 247.422,106.932 247.422,103.512 C247.422,100.2 245.226,98.616 241.338,98.616 L235.722,98.616 Z M273.702,98.616 L273.702,94.8 L255.702,94.8 L255.702,120 L274.134,120 L274.134,116.184 L259.95,116.184 L259.95,109.236 L272.262,109.236 L272.262,105.42 L259.95,105.42 L259.95,98.616 L273.702,98.616 Z M279.93,115.644 C278.634,115.644 277.698,116.616 277.698,117.948 C277.698,118.704 278.022,119.388 278.67,119.82 L277.302,122.952 L279.426,122.952 L281.478,119.856 C281.874,119.28 282.126,118.668 282.126,117.948 C282.126,116.508 281.082,115.644 279.93,115.644 Z M307.578,94.692 C315.102,94.692 320.934,100.2 320.934,107.4 C320.934,114.6 315.102,120.18 307.578,120.18 C300.054,120.18 294.222,114.6 294.222,107.4 C294.222,100.164 300.054,94.692 307.578,94.692 Z M307.614,98.508 C302.646,98.508 298.542,102.396 298.542,107.4 C298.542,112.404 302.682,116.364 307.614,116.364 C312.546,116.364 316.578,112.404 316.578,107.4 C316.578,102.396 312.546,98.508 307.614,98.508 Z M346.89,94.8 L342.642,94.8 L342.642,109.56 C342.642,113.844 340.086,116.364 335.982,116.364 C331.842,116.364 329.214,113.808 329.214,109.56 L329.214,94.8 L324.966,94.8 L324.966,109.56 C324.966,116.148 329.142,120.18 335.946,120.18 C342.75,120.18 346.89,116.148 346.89,109.56 L346.89,94.8 Z M370.182,98.616 L370.182,94.8 L349.986,94.8 L349.986,98.616 L357.942,98.616 L357.942,120 L362.19,120 L362.19,98.616 L370.182,98.616 Z M373.818,94.8 L384.15,94.8 C391.71,94.8 397.182,100.092 397.182,107.4 C397.182,114.672 391.674,120 384.042,120 L373.818,120 L373.818,94.8 Z M378.066,98.616 L378.066,116.184 L384.258,116.184 C389.154,116.184 392.898,112.548 392.898,107.436 C392.898,102.288 389.046,98.616 384.078,98.616 L378.066,98.616 Z M412.986,94.692 C420.51,94.692 426.342,100.2 426.342,107.4 C426.342,114.6 420.51,120.18 412.986,120.18 C405.462,120.18 399.63,114.6 399.63,107.4 C399.63,100.164 405.462,94.692 412.986,94.692 Z M413.022,98.508 C408.054,98.508 403.95,102.396 403.95,107.4 C403.95,112.404 408.09,116.364 413.022,116.364 C417.954,116.364 421.986,112.404 421.986,107.4 C421.986,102.396 417.954,98.508 413.022,98.508 Z M442.146,94.692 C449.67,94.692 455.502,100.2 455.502,107.4 C455.502,114.6 449.67,120.18 442.146,120.18 C434.622,120.18 428.79,114.6 428.79,107.4 C428.79,100.164 434.622,94.692 442.146,94.692 Z M442.182,98.508 C437.214,98.508 433.11,102.396 433.11,107.4 C433.11,112.404 437.25,116.364 442.182,116.364 C447.114,116.364 451.146,112.404 451.146,107.4 C451.146,102.396 447.114,98.508 442.182,98.508 Z M476.022,120 L471.414,112.368 C471.054,112.404 470.658,112.404 470.262,112.404 L464.286,112.404 L464.286,120 L460.038,120 L460.038,94.8 L470.262,94.8 C476.706,94.8 480.414,97.932 480.414,103.404 C480.414,107.436 478.542,110.28 475.194,111.576 L480.846,120 L476.022,120 Z M464.286,108.588 L470.262,108.588 C474.15,108.588 476.382,106.932 476.382,103.512 C476.382,100.2 474.15,98.616 470.262,98.616 L464.286,98.616 L464.286,108.588 Z M513.534,120.684 L509.61,116.832 C507.378,118.956 504.786,120.18 502.014,120.18 C497.514,120.18 494.094,117.192 494.094,113.124 C494.094,109.56 496.686,107.652 499.53,106.14 C497.874,103.908 497.118,102.108 497.118,100.308 C497.118,96.96 499.746,94.62 503.67,94.62 C507.45,94.62 510.042,96.816 510.042,99.912 C510.042,103.368 507.018,105.168 503.922,106.788 C505.29,108.336 507.054,110.136 509.214,112.26 C510.078,110.964 510.834,109.452 511.482,107.724 L514.182,109.74 C513.426,111.54 512.562,113.16 511.554,114.528 L515.658,118.524 L513.534,120.684 Z M500.394,100.272 C500.394,101.604 501.006,103.008 502.266,104.736 C504.714,103.476 506.766,102.18 506.766,99.948 C506.766,98.292 505.578,97.212 503.706,97.212 C501.69,97.212 500.394,98.544 500.394,100.272 Z M502.158,117.048 C503.994,117.048 505.758,116.148 507.342,114.6 C504.822,112.08 502.806,110.028 501.222,108.228 C499.134,109.416 497.514,110.748 497.514,112.8 C497.514,115.32 499.566,117.048 502.158,117.048 Z M528.51,94.8 L538.554,94.8 C544.89,94.8 548.526,97.932 548.526,103.404 C548.526,109.092 544.89,112.404 538.554,112.404 L532.758,112.404 L532.758,120 L528.51,120 L528.51,94.8 Z M532.758,98.616 L532.758,108.588 L538.374,108.588 C542.262,108.588 544.458,106.932 544.458,103.512 C544.458,100.2 542.262,98.616 538.374,98.616 L532.758,98.616 Z M564.006,94.692 C571.53,94.692 577.362,100.2 577.362,107.4 C577.362,114.6 571.53,120.18 564.006,120.18 C556.482,120.18 550.65,114.6 550.65,107.4 C550.65,100.164 556.482,94.692 564.006,94.692 Z M564.042,98.508 C559.074,98.508 554.97,102.396 554.97,107.4 C554.97,112.404 559.11,116.364 564.042,116.364 C568.974,116.364 573.006,112.404 573.006,107.4 C573.006,102.396 568.974,98.508 564.042,98.508 Z M597.882,120 L593.274,112.368 C592.914,112.404 592.518,112.404 592.122,112.404 L586.146,112.404 L586.146,120 L581.898,120 L581.898,94.8 L592.122,94.8 C598.566,94.8 602.274,97.932 602.274,103.404 C602.274,107.436 600.402,110.28 597.054,111.576 L602.706,120 L597.882,120 Z M586.146,108.588 L592.122,108.588 C596.01,108.588 598.242,106.932 598.242,103.512 C598.242,100.2 596.01,98.616 592.122,98.616 L586.146,98.616 L586.146,108.588 Z M625.134,98.616 L625.134,94.8 L604.938,94.8 L604.938,98.616 L612.894,98.616 L612.894,120 L617.142,120 L617.142,98.616 L625.134,98.616 Z M644.754,120 L640.146,112.368 C639.786,112.404 639.39,112.404 638.994,112.404 L633.018,112.404 L633.018,120 L628.77,120 L628.77,94.8 L638.994,94.8 C645.438,94.8 649.146,97.932 649.146,103.404 C649.146,107.436 647.274,110.28 643.926,111.576 L649.578,120 L644.754,120 Z M633.018,108.588 L638.994,108.588 C642.882,108.588 645.114,106.932 645.114,103.512 C645.114,100.2 642.882,98.616 638.994,98.616 L633.018,98.616 L633.018,108.588 Z M671.07,114.312 L658.362,114.312 L655.95,120 L651.522,120 L662.646,94.8 L667.002,94.8 L678.018,120 L673.482,120 L671.07,114.312 Z M669.45,110.532 L664.698,99.336 L659.946,110.532 L669.45,110.532 Z M685.614,120 L685.614,94.8 L681.366,94.8 L681.366,120 L685.614,120 Z M709.446,98.616 L709.446,94.8 L689.25,94.8 L689.25,98.616 L697.206,98.616 L697.206,120 L701.454,120 L701.454,98.616 L709.446,98.616 Z M722.37,94.8 L732.414,94.8 C738.75,94.8 742.386,97.932 742.386,103.404 C742.386,109.092 738.75,112.404 732.414,112.404 L726.618,112.404 L726.618,120 L722.37,120 L722.37,94.8 Z M726.618,98.616 L726.618,108.588 L732.234,108.588 C736.122,108.588 738.318,106.932 738.318,103.512 C738.318,100.2 736.122,98.616 732.234,98.616 L726.618,98.616 Z M768.45,120 L768.45,94.8 L764.202,94.8 L764.202,105.744 L750.846,105.744 L750.846,94.8 L746.598,94.8 L746.598,120 L750.846,120 L750.846,109.56 L764.202,109.56 L764.202,120 L768.45,120 Z M786.342,94.692 C793.866,94.692 799.698,100.2 799.698,107.4 C799.698,114.6 793.866,120.18 786.342,120.18 C778.818,120.18 772.986,114.6 772.986,107.4 C772.986,100.164 778.818,94.692 786.342,94.692 Z M786.378,98.508 C781.41,98.508 777.306,102.396 777.306,107.4 C777.306,112.404 781.446,116.364 786.378,116.364 C791.31,116.364 795.342,112.404 795.342,107.4 C795.342,102.396 791.31,98.508 786.378,98.508 Z M821.442,98.616 L821.442,94.8 L801.246,94.8 L801.246,98.616 L809.202,98.616 L809.202,120 L813.45,120 L813.45,98.616 L821.442,98.616 Z M836.346,94.692 C843.87,94.692 849.702,100.2 849.702,107.4 C849.702,114.6 843.87,120.18 836.346,120.18 C828.822,120.18 822.99,114.6 822.99,107.4 C822.99,100.164 828.822,94.692 836.346,94.692 Z M836.382,98.508 C831.414,98.508 827.31,102.396 827.31,107.4 C827.31,112.404 831.45,116.364 836.382,116.364 C841.314,116.364 845.346,112.404 845.346,107.4 C845.346,102.396 841.314,98.508 836.382,98.508 Z M871.482,107.616 L871.482,114.636 C869.682,115.716 867.558,116.364 865.686,116.364 C860.538,116.364 856.47,112.44 856.47,107.4 C856.47,102.396 860.502,98.472 865.65,98.472 C868.278,98.472 870.978,99.552 872.922,101.352 L875.334,98.22 C872.85,96.06 869.25,94.692 865.65,94.692 C858.018,94.692 852.15,100.2 852.15,107.4 C852.15,114.6 857.946,120.18 865.398,120.18 C868.854,120.18 872.634,118.848 875.19,116.904 L875.19,107.616 L871.482,107.616 Z M881.202,94.8 L891.246,94.8 C897.582,94.8 901.218,97.932 901.218,103.404 C901.218,109.092 897.582,112.404 891.246,112.404 L885.45,112.404 L885.45,120 L881.202,120 L881.202,94.8 Z M885.45,98.616 L885.45,108.588 L891.066,108.588 C894.954,108.588 897.15,106.932 897.15,103.512 C897.15,100.2 894.954,98.616 891.066,98.616 L885.45,98.616 Z M921.702,114.312 L908.994,114.312 L906.582,120 L902.154,120 L913.278,94.8 L917.634,94.8 L928.65,120 L924.114,120 L921.702,114.312 Z M920.082,110.532 L915.33,99.336 L910.578,110.532 L920.082,110.532 Z M953.85,120 L953.85,94.8 L949.602,94.8 L949.602,105.744 L936.246,105.744 L936.246,94.8 L931.998,94.8 L931.998,120 L936.246,120 L936.246,109.56 L949.602,109.56 L949.602,120 L953.85,120 Z M970.806,111.612 L980.058,94.8 L975.738,94.8 L968.682,107.076 L961.482,94.8 L957.198,94.8 L966.594,111.756 L966.594,120 L970.806,120 L970.806,111.612 Z" id="LANDSCAPE,-OUTDOOR-&amp;"></path>
        </g>
    </g>
</svg>